{"title":"Divergent 2014 BDRip 480p x264 Dual Audio [Hindi-Eng] YsB TeaM F","uid":10823584,"size":555616347,"categoryP":"video","categoryS":"movies","magnet":"?xt=urn:btih:19377f226b01c7d38c26f381daa4c0e62bea21b3&amp;dn=Divergent+2014+BDRip+480p+x264+Dual+Audio+%5BHindi-Eng%5D+YsB+TeaM+F&amp;tr=udp%3A%2F%2Ftracker.openbittorrent.com%3A80&amp;tr=udp%3A%2F%2Fopen.demonii.com%3A1337&amp;tr=udp%3A%2F%2Ftracker.coppersurfer.tk%3A6969&amp;tr=udp%3A%2F%2Fexodus.desync.com%3A6969","seeders":2,"leechers":0,"uploader":"Dj_YsB","files":8,"time":1408560550,"description":"Divergent 2014 BDRip 480p x264 Dual Audio [Hindi-Eng] YsB TeaM FL\n &lt;a href=&quot;\nhttp://i.imgur.com/STBXpaA.jpg&quot; rel=&quot;nofollow&quot; target=&quot;_NEW&quot;&gt;\nhttp://i.imgur.com/STBXpaA.jpg&lt;/a&gt;\n\nInfo:\nGeneral\nComplete name                            : Divergent 2014 BDRip 480p x264 Dual Audio [Hindi-Eng] YsB TeaM FL.mkv\nFormat                                   : Matroska\nFormat version                           : Version 4 / Version 2\nFile size                                : 530 MiB\nDuration                                 : 2h 19mn\nOverall bit rate                         : 530 Kbps\nMovie name                               : Divergent 2014 BDRip 480p x264 Dual Audio [Hindi-Eng] YsB TeaM FL\n\nVideo\nID                                       : 1\nFormat                                   : AVC\nDuration                                 : 2h 19mn\nBit rate                                 : 400 Kbps\nWidth                                    : 848 pixels\nHeight                                   : 352 pixels\nFrame rate mode                          : Constant\nFrame rate                               : 23.976 fps\nStream size                              : 391 MiB (74%)\nTitle                                    : YsB TeaM FL\n\nAudio #1\nID                                       : 2\nFormat                                   : AC-3\nDuration                                 : 2h 19mn\nBit rate mode                            : Constant\nBit rate                                 : 64.0 Kbps\nChannel(s)                               : 2 channels\nChannel positions                        : Front: L R\nSampling rate                            : 48.0 KHz\nStream size                              : 63.9 MiB (12%)\nTitle                                    : YsB TeaM FL\nLanguage                                 : Hindi\n\nAudio #2\nID                                       : 3\nID                                       : 2\nFormat                                   : AC-3\nDuration                                 : 2h 19mn\nBit rate mode                            : Constant\nBit rate                                 : 64.0 Kbps\nChannel(s)                               : 2 channels\nChannel positions                        : Front: L R\nSampling rate                            : 48.0 KHz\nStream size                              : 63.9 MiB (12%)\nTitle                                    : YsB TeaM FL\nLanguage                                 : English\n\nText #1\nID                                       : 4\nFormat                                   : UTF-8\nCodec ID                                 : S_TEXT/UTF8\nCodec ID/Info                            : UTF-8 Plain Text\nTitle                                    : YsB TeaM FL [Full]\nLanguage                                 : English\nDefault                                  : No\nForced                                   : No\n\nText #2\nID                                       : 5\nFormat                                   : UTF-8\nCodec ID                                 : S_TEXT/UTF8\nCodec ID/Info                            : UTF-8 Plain Text\nTitle                                    : YsB TeaM FL [SDH]\nLanguage                                 : English\nDefault                                  : No\nForced                                   : No\n\nText #3\nID                                       : 6\nFormat                                   : UTF-8\nCodec ID                                 : S_TEXT/UTF8\nCodec ID/Info                            : UTF-8 Plain Text\nTitle                                    : YsB TeaM FL  [SDH-COLORED]\nLanguage                                 : English\nDefault                                  : No\nForced                                   : No\n\nMenu\n00:00:00.000                             : en:00:00:00.000\n00:07:57.477                             : en:00:07:57.477\n00:15:29.595                             : en:00:15:29.595\n00:23:31.035                             : en:00:23:31.035\n00:33:56.618                             : en:00:33:56.618\n00:38:52.956                             : en:00:38:52.956\n00:44:24.328                             : en:00:44:24.328\n00:53:37.506                             : en:00:53:37.506\n01:00:02.682                             : en:01:00:02.682\n01:06:32.071                             : en:01:06:32.071\n01:13:19.603                             : en:01:13:19.603\n01:20:08.137                             : en:01:20:08.137\n01:28:41.441                             : en:01:28:41.441\n01:35:54.957                             : en:01:35:54.957\n01:46:19.373                             : en:01:46:19.373\n01:57:54.692                             : en:01:57:54.692\n\nScreenShot: &lt;a href=&quot;\nhttp://i.imgur.com/1sBoXUz.jpg&quot; rel=&quot;nofollow&quot; target=&quot;_NEW&quot;&gt;\nhttp://i.imgur.com/1sBoXUz.jpg&lt;/a&gt; &lt;a href=&quot;\nhttp://i.imgur.com/7nt2h3M.jpg&quot; rel=&quot;nofollow&quot; target=&quot;_NEW&quot;&gt;\nhttp://i.imgur.com/7nt2h3M.jpg&lt;/a&gt; &lt;a href=&quot;\nhttp://i.imgur.com/kXgKjWA.jpg&quot; rel=&quot;nofollow&quot; target=&quot;_NEW&quot;&gt;\nhttp://i.imgur.com/kXgKjWA.jpg&lt;/a&gt;\n\nThanks\nGPsoft.\nTeaM FL - Dj YsB, Swaraj, Hemkumar, Sajan...","torrent":{"xt":"urn:btih:19377f226b01c7d38c26f381daa4c0e62bea21b3","amp;dn":"Divergent+2014+BDRip+480p+x264+Dual+Audio+%5BHindi-Eng%5D+YsB+TeaM+F","amp;tr":["udp%3A%2F%2Ftracker.openbittorrent.com%3A80","udp%3A%2F%2Fopen.demonii.com%3A1337","udp%3A%2F%2Ftracker.coppersurfer.tk%3A6969","udp%3A%2F%2Fexodus.desync.com%3A6969"],"infoHash":"19377f226b01c7d38c26f381daa4c0e62bea21b3","infoHashBuffer":{"type":"Buffer","data":[25,55,127,34,107,1,199,211,140,38,243,129,218,164,192,230,43,234,33,179]},"announce":[],"urlList":[]}}